<mxfile host="app.diagrams.net" modified="2023-03-24T02:29:55.074Z" agent="Mozilla/5.0 (Windows NT 10.0; Win64; x64) AppleWebKit/537.36 (KHTML, like Gecko) Chrome/111.0.0.0 Safari/537.36" etag="mwpsxYwUOYiHakW14TFs" version="21.1.0" type="github">
  <diagram id="C5RBs43oDa-KdzZeNtuy" name="Page-1">
    <mxGraphModel dx="1420" dy="750" grid="1" gridSize="10" guides="1" tooltips="1" connect="1" arrows="1" fold="1" page="1" pageScale="1" pageWidth="827" pageHeight="1169" math="0" shadow="0">
      <root>
        <mxCell id="WIyWlLk6GJQsqaUBKTNV-0" />
        <mxCell id="WIyWlLk6GJQsqaUBKTNV-1" parent="WIyWlLk6GJQsqaUBKTNV-0" />
        <mxCell id="eVKTsNBVHak8fvWvw7ZH-28" value="" style="edgeStyle=orthogonalEdgeStyle;rounded=0;orthogonalLoop=1;jettySize=auto;html=1;" edge="1" parent="WIyWlLk6GJQsqaUBKTNV-1" source="eVKTsNBVHak8fvWvw7ZH-3" target="eVKTsNBVHak8fvWvw7ZH-5">
          <mxGeometry relative="1" as="geometry" />
        </mxCell>
        <mxCell id="eVKTsNBVHak8fvWvw7ZH-3" value="取出物品" style="rounded=1;whiteSpace=wrap;html=1;fontSize=18;" vertex="1" parent="WIyWlLk6GJQsqaUBKTNV-1">
          <mxGeometry x="295" y="528" width="120" height="60" as="geometry" />
        </mxCell>
        <mxCell id="eVKTsNBVHak8fvWvw7ZH-4" value="" style="edgeStyle=orthogonalEdgeStyle;rounded=0;orthogonalLoop=1;jettySize=auto;html=1;fontSize=18;" edge="1" parent="WIyWlLk6GJQsqaUBKTNV-1" source="eVKTsNBVHak8fvWvw7ZH-5" target="eVKTsNBVHak8fvWvw7ZH-7">
          <mxGeometry relative="1" as="geometry" />
        </mxCell>
        <mxCell id="eVKTsNBVHak8fvWvw7ZH-5" value="关柜门后盘点" style="rounded=1;whiteSpace=wrap;html=1;fontSize=18;" vertex="1" parent="WIyWlLk6GJQsqaUBKTNV-1">
          <mxGeometry x="295" y="628" width="120" height="60" as="geometry" />
        </mxCell>
        <mxCell id="eVKTsNBVHak8fvWvw7ZH-6" value="" style="edgeStyle=orthogonalEdgeStyle;rounded=0;orthogonalLoop=1;jettySize=auto;html=1;fontSize=18;" edge="1" parent="WIyWlLk6GJQsqaUBKTNV-1" source="eVKTsNBVHak8fvWvw7ZH-7" target="eVKTsNBVHak8fvWvw7ZH-10">
          <mxGeometry relative="1" as="geometry" />
        </mxCell>
        <mxCell id="eVKTsNBVHak8fvWvw7ZH-7" value="柜体软件上传数据到服务器" style="rounded=1;whiteSpace=wrap;html=1;fontSize=18;" vertex="1" parent="WIyWlLk6GJQsqaUBKTNV-1">
          <mxGeometry x="295" y="738" width="120" height="60" as="geometry" />
        </mxCell>
        <mxCell id="eVKTsNBVHak8fvWvw7ZH-8" style="edgeStyle=orthogonalEdgeStyle;rounded=0;orthogonalLoop=1;jettySize=auto;html=1;entryX=0.5;entryY=0;entryDx=0;entryDy=0;fontSize=18;" edge="1" parent="WIyWlLk6GJQsqaUBKTNV-1" source="eVKTsNBVHak8fvWvw7ZH-9" target="eVKTsNBVHak8fvWvw7ZH-12">
          <mxGeometry relative="1" as="geometry" />
        </mxCell>
        <mxCell id="eVKTsNBVHak8fvWvw7ZH-9" value="开始" style="shape=hexagon;perimeter=hexagonPerimeter2;whiteSpace=wrap;html=1;fixedSize=1;fontSize=18;" vertex="1" parent="WIyWlLk6GJQsqaUBKTNV-1">
          <mxGeometry x="295" y="30" width="120" height="80" as="geometry" />
        </mxCell>
        <mxCell id="eVKTsNBVHak8fvWvw7ZH-10" value="结束" style="ellipse;whiteSpace=wrap;html=1;fontSize=18;" vertex="1" parent="WIyWlLk6GJQsqaUBKTNV-1">
          <mxGeometry x="295" y="858" width="120" height="80" as="geometry" />
        </mxCell>
        <mxCell id="eVKTsNBVHak8fvWvw7ZH-11" value="" style="edgeStyle=orthogonalEdgeStyle;rounded=0;orthogonalLoop=1;jettySize=auto;html=1;fontSize=18;" edge="1" parent="WIyWlLk6GJQsqaUBKTNV-1" source="eVKTsNBVHak8fvWvw7ZH-12">
          <mxGeometry relative="1" as="geometry">
            <mxPoint x="355" y="260" as="targetPoint" />
          </mxGeometry>
        </mxCell>
        <mxCell id="eVKTsNBVHak8fvWvw7ZH-12" value="柜体上验证身份" style="rounded=1;whiteSpace=wrap;html=1;fontSize=18;" vertex="1" parent="WIyWlLk6GJQsqaUBKTNV-1">
          <mxGeometry x="295" y="160" width="120" height="60" as="geometry" />
        </mxCell>
        <mxCell id="eVKTsNBVHak8fvWvw7ZH-13" value="领用流程" style="glass=0;labelPosition=center;verticalLabelPosition=middle;align=center;verticalAlign=middle;horizontal=1;fontColor=default;textDirection=rtl;direction=south;rotation=0;whiteSpace=wrap;fontSize=30;labelBorderColor=none;strokeColor=none;" vertex="1" parent="WIyWlLk6GJQsqaUBKTNV-1">
          <mxGeometry x="160" y="80" width="40" height="280" as="geometry" />
        </mxCell>
        <mxCell id="eVKTsNBVHak8fvWvw7ZH-21" value="是" style="edgeStyle=orthogonalEdgeStyle;rounded=0;orthogonalLoop=1;jettySize=auto;html=1;fontSize=18;" edge="1" parent="WIyWlLk6GJQsqaUBKTNV-1" source="eVKTsNBVHak8fvWvw7ZH-19">
          <mxGeometry relative="1" as="geometry">
            <mxPoint x="355" y="430" as="targetPoint" />
          </mxGeometry>
        </mxCell>
        <mxCell id="eVKTsNBVHak8fvWvw7ZH-22" style="edgeStyle=orthogonalEdgeStyle;rounded=0;orthogonalLoop=1;jettySize=auto;html=1;entryX=1;entryY=0.5;entryDx=0;entryDy=0;" edge="1" parent="WIyWlLk6GJQsqaUBKTNV-1" source="eVKTsNBVHak8fvWvw7ZH-19" target="eVKTsNBVHak8fvWvw7ZH-12">
          <mxGeometry relative="1" as="geometry">
            <Array as="points">
              <mxPoint x="500" y="300" />
              <mxPoint x="500" y="190" />
            </Array>
          </mxGeometry>
        </mxCell>
        <mxCell id="eVKTsNBVHak8fvWvw7ZH-23" value="否" style="edgeLabel;html=1;align=center;verticalAlign=middle;resizable=0;points=[];fontSize=18;" vertex="1" connectable="0" parent="eVKTsNBVHak8fvWvw7ZH-22">
          <mxGeometry x="-0.5733" relative="1" as="geometry">
            <mxPoint as="offset" />
          </mxGeometry>
        </mxCell>
        <mxCell id="eVKTsNBVHak8fvWvw7ZH-19" value="验证" style="rhombus;whiteSpace=wrap;html=1;fontSize=18;rounded=1;" vertex="1" parent="WIyWlLk6GJQsqaUBKTNV-1">
          <mxGeometry x="315" y="260" width="80" height="80" as="geometry" />
        </mxCell>
        <mxCell id="eVKTsNBVHak8fvWvw7ZH-27" value="" style="edgeStyle=orthogonalEdgeStyle;rounded=0;orthogonalLoop=1;jettySize=auto;html=1;" edge="1" parent="WIyWlLk6GJQsqaUBKTNV-1" source="eVKTsNBVHak8fvWvw7ZH-24" target="eVKTsNBVHak8fvWvw7ZH-3">
          <mxGeometry relative="1" as="geometry" />
        </mxCell>
        <mxCell id="eVKTsNBVHak8fvWvw7ZH-24" value="打开柜门" style="rounded=1;whiteSpace=wrap;html=1;fontSize=18;" vertex="1" parent="WIyWlLk6GJQsqaUBKTNV-1">
          <mxGeometry x="295" y="428" width="120" height="60" as="geometry" />
        </mxCell>
      </root>
    </mxGraphModel>
  </diagram>
</mxfile>
